<svg width="634" height="232" viewBox="0 0 634 232" fill="none" xmlns="http://www.w3.org/2000/svg">
<path d="M633.253 215.182C633.253 224.47 491.495 232 316.626 232C141.758 232 8.39233e-05 224.47 8.39233e-05 215.182C8.39233e-05 205.894 633.253 205.894 633.253 215.182Z" fill="#80B3C9"/>
<path d="M326.465 207.339C326.465 208.118 327.094 208.747 327.872 208.747H454.835C455.613 208.747 456.243 208.118 456.243 207.339V177.86C456.243 177.083 455.613 176.453 454.835 176.453H327.872C327.094 176.453 326.465 177.083 326.465 177.86V207.339Z" fill="#878787"/>
<path d="M79.7763 163.257C79.7763 164.034 80.4051 164.665 81.1837 164.665H442.926C443.703 164.665 444.333 164.034 444.333 163.257V1.40739C444.333 0.629672 443.703 0 442.926 0H81.1846C80.406 0 79.7772 0.630563 79.7772 1.40739L79.7763 163.257Z" fill="#C7D3D2"/>
<path d="M93.8528 10.1915V151.109" stroke="#DAE5E4" stroke-width="2" stroke-miterlimit="10" stroke-linecap="round" stroke-linejoin="round"/>
<path d="M114.4 10.1915V151.109" stroke="#DAE5E4" stroke-width="2" stroke-miterlimit="10" stroke-linecap="round" stroke-linejoin="round"/>
<path d="M134.947 10.1915V151.109" stroke="#DAE5E4" stroke-width="2" stroke-miterlimit="10" stroke-linecap="round" stroke-linejoin="round"/>
<path d="M155.494 10.1915V151.109" stroke="#DAE5E4" stroke-width="2" stroke-miterlimit="10" stroke-linecap="round" stroke-linejoin="round"/>
<path d="M176.042 10.1915V151.109" stroke="#DAE5E4" stroke-width="2" stroke-miterlimit="10" stroke-linecap="round" stroke-linejoin="round"/>
<path d="M196.589 10.1915V151.109" stroke="#DAE5E4" stroke-width="2" stroke-miterlimit="10" stroke-linecap="round" stroke-linejoin="round"/>
<path d="M217.136 10.1915V151.109" stroke="#DAE5E4" stroke-width="2" stroke-miterlimit="10" stroke-linecap="round" stroke-linejoin="round"/>
<path d="M237.683 10.1915V151.109" stroke="#DAE5E4" stroke-width="2" stroke-miterlimit="10" stroke-linecap="round" stroke-linejoin="round"/>
<path d="M258.23 10.1915V151.109" stroke="#DAE5E4" stroke-width="2" stroke-miterlimit="10" stroke-linecap="round" stroke-linejoin="round"/>
<path d="M278.778 10.1915V151.109" stroke="#DAE5E4" stroke-width="2" stroke-miterlimit="10" stroke-linecap="round" stroke-linejoin="round"/>
<path d="M299.325 10.1915V151.109" stroke="#DAE5E4" stroke-width="2" stroke-miterlimit="10" stroke-linecap="round" stroke-linejoin="round"/>
<path d="M319.873 10.1915V151.109" stroke="#DAE5E4" stroke-width="2" stroke-miterlimit="10" stroke-linecap="round" stroke-linejoin="round"/>
<path d="M340.42 10.1915V151.109" stroke="#DAE5E4" stroke-width="2" stroke-miterlimit="10" stroke-linecap="round" stroke-linejoin="round"/>
<path d="M360.967 10.1915V151.109" stroke="#DAE5E4" stroke-width="2" stroke-miterlimit="10" stroke-linecap="round" stroke-linejoin="round"/>
<path d="M381.514 10.1915V151.109" stroke="#DAE5E4" stroke-width="2" stroke-miterlimit="10" stroke-linecap="round" stroke-linejoin="round"/>
<path d="M402.062 10.1915V151.109" stroke="#DAE5E4" stroke-width="2" stroke-miterlimit="10" stroke-linecap="round" stroke-linejoin="round"/>
<path d="M422.609 10.1915V151.109" stroke="#DAE5E4" stroke-width="2" stroke-miterlimit="10" stroke-linecap="round" stroke-linejoin="round"/>
<path opacity="0.4" d="M79.7763 163.257C79.7763 164.034 80.4051 164.665 81.1837 164.665H442.926C443.703 164.665 444.333 164.034 444.333 163.257V1.40739C444.333 0.629672 443.703 0 442.926 0L79.7763 163.257Z" fill="#C7D3D2"/>
<path d="M88.6916 205.278C88.6916 206.057 89.3213 206.688 90.099 206.688H120.598C121.376 206.688 122.005 206.057 122.005 205.278V181.231C122.005 180.454 121.376 179.823 120.598 179.823H90.099C89.3213 179.823 88.6916 180.454 88.6916 181.231V205.278Z" fill="#5D595D"/>
<path d="M88.4687 205.947C88.4687 206.726 89.0983 207.356 89.8761 207.356H92.2226C93.0003 207.356 93.63 206.726 93.63 205.947V174.044C93.63 173.265 93.0003 172.635 92.2226 172.635H89.8761C89.0983 172.635 88.4687 173.265 88.4687 174.044V205.947Z" fill="#342F35"/>
<path d="M213.033 202.464C213.033 203.242 213.663 203.871 214.441 203.871H246.346C247.125 203.871 247.754 203.242 247.754 202.464V185.571C247.754 184.795 247.125 184.164 246.346 184.164H214.441C213.663 184.164 213.033 184.795 213.033 185.571V202.464Z" fill="#342F35"/>
<path d="M73.2067 166.335C73.2067 167.114 73.8364 167.743 74.6141 167.743H446.587C447.364 167.743 447.994 167.114 447.994 166.335V162.994C447.994 162.216 447.364 161.587 446.587 161.587H74.6141C73.8364 161.587 73.2067 162.216 73.2067 162.994V166.335Z" fill="#342F35"/>
<path d="M460.676 208.18L521.066 214.475L540.762 148.13H444.333L460.676 208.18Z" fill="#342F35"/>
<path d="M554.23 214.475C546.259 214.475 520.249 214.475 520.249 214.475C520.249 214.475 525.703 165.809 490.882 165.809C456.061 165.809 460.675 208.18 460.675 208.18H435.085C435.085 208.18 435.085 68.0578 435.085 46.2441C435.085 40.7911 488.785 44.1482 494.658 57.992C494.658 57.992 522.771 59.6544 527.8 61.3481C537.882 64.7435 553.052 116.434 555.759 136.016C558.226 153.866 559.266 214.475 554.23 214.475Z" fill="#006EBC"/>
<path d="M554.23 214.474C546.259 214.474 520.249 214.474 520.249 214.474C520.249 214.474 525.703 165.809 490.882 165.809C456.061 165.809 460.675 208.18 460.675 208.18H435.085C435.085 208.18 435.085 68.0577 435.085 46.2441L554.23 214.474Z" fill="#0063AA"/>
<path d="M435.085 46.2441C435.085 40.7911 488.785 44.1482 494.658 57.992H435.085C435.085 52.7914 435.085 48.7378 435.085 46.2441Z" fill="#006EBC"/>
<path d="M520.182 179.295C520.182 174.597 513.68 161.086 498.988 161.086C498.696 161.086 498.46 160.849 498.46 160.558L498.306 110.845C498.306 110.679 498.384 110.525 498.514 110.425C498.646 110.324 498.818 110.295 498.976 110.336L540.374 121.862C540.603 121.925 540.761 122.134 540.761 122.371V179.294C540.761 179.585 540.524 179.822 540.233 179.822H520.709C520.419 179.823 520.182 179.586 520.182 179.295ZM539.706 122.772L499.364 111.54L499.517 160.038C514.064 160.391 520.773 173.355 521.215 178.767H539.706V122.772Z" fill="#005693"/>
<path d="M437.273 58.52H492.674C492.965 58.52 493.202 58.2836 493.202 57.992C493.202 57.7003 492.965 57.464 492.674 57.464H437.273C436.982 57.464 436.745 57.7003 436.745 57.992C436.746 58.2836 436.982 58.52 437.273 58.52Z" fill="#005693"/>
<path d="M529.538 84.216C530.734 84.5379 541.424 120.255 541.424 122.372C541.424 124.488 497.668 114.138 497.668 113.432C497.668 112.727 496.95 87.3982 497.448 85.9873C497.943 84.5763 527.797 83.7451 529.538 84.216Z" fill="#4EBBE5"/>
<path opacity="0.5" d="M517.457 84.2347L497.623 111.505C497.65 112.618 497.668 113.322 497.668 113.431C497.668 113.537 498.663 113.863 500.346 114.33L522.321 84.1179C520.817 84.1428 519.172 84.183 517.457 84.2347Z" fill="#BDECFE"/>
<path opacity="0.5" d="M518.642 118.76C522.418 119.598 526.227 120.403 529.623 121.063L538.003 109.54C536.841 105.585 535.521 101.236 534.27 97.2731L518.642 118.76Z" fill="#BDECFE"/>
<path d="M501.639 110.317C499.897 107.483 498.859 92.3152 498.476 85.5726C497.87 85.7046 497.498 85.8428 497.448 85.9873C496.95 87.3983 497.668 112.726 497.668 113.432C497.668 114.138 541.424 124.488 541.424 122.372C541.424 122.166 541.323 121.642 541.14 120.87C534.221 119.553 503.635 113.57 501.639 110.317Z" fill="#342F35"/>
<path d="M490.563 86.4858C491.26 87.1743 491.631 109.905 490.456 110.846C489.28 111.787 476.814 109.376 474.984 108.857C473.854 108.535 466.609 88.9706 467.314 87.5596C468.021 86.1478 489.287 85.2211 490.563 86.4858Z" fill="#4EBBE5"/>
<path opacity="0.5" d="M490.563 86.4858C490.08 86.0068 486.744 85.8427 482.742 85.8989L471.493 101.366C473.037 105.376 474.522 108.726 474.985 108.856C475.462 108.992 476.662 109.255 478.192 109.554L491.069 91.8505C490.95 88.8734 490.772 86.6909 490.563 86.4858Z" fill="#BDECFE"/>
<path d="M476.302 105.93C473.571 102.826 469.498 91.6998 467.923 87.2127C467.593 87.3242 467.375 87.4393 467.314 87.5597C466.609 88.9706 473.853 108.535 474.984 108.857C476.814 109.376 489.279 111.787 490.456 110.846C490.6 110.731 490.721 110.285 490.82 109.597C486.797 109.456 478.839 108.816 476.302 105.93Z" fill="#342F35"/>
<path d="M533.94 84.216C534.243 83.4543 538.345 83.4044 541.216 83.4633C546.33 96.6114 551.047 113.021 553.768 125.363C551.392 125.014 547.332 124.295 546.349 123.313C544.939 121.902 533.47 85.3915 533.94 84.216Z" fill="#4EBBE5"/>
<path opacity="0.5" d="M542.279 86.261L536.521 94.1783C537.626 97.8921 538.966 102.218 540.3 106.383L546.342 98.0741C545.05 94.0285 543.684 90.0391 542.279 86.261Z" fill="#BDECFE"/>
<path d="M549.137 120.469C547.006 117.759 539.057 95.4635 534.959 83.7361C534.404 83.8512 534.024 84.0046 533.94 84.2151C533.47 85.3906 544.939 121.901 546.35 123.312C547.333 124.295 551.392 125.013 553.768 125.362C553.566 124.446 553.349 123.498 553.125 122.54C551.036 121.757 549.589 121.044 549.137 120.469Z" fill="#342F35"/>
<path d="M502.803 141.967C502.803 142.746 503.433 143.375 504.211 143.375H509.989C510.766 143.375 511.396 142.746 511.396 141.967V141.099C511.396 140.321 510.766 139.692 509.989 139.692H504.211C503.433 139.692 502.803 140.321 502.803 141.099V141.967Z" fill="#342F35"/>
<path d="M551.759 189.08C551.759 189.859 552.388 190.487 553.166 190.487H558.638C559.415 190.487 560.045 189.859 560.045 189.08V164.273C560.045 163.495 559.415 162.866 558.638 162.866H553.166C552.388 162.866 551.759 163.495 551.759 164.273V189.08Z" fill="#FFC001"/>
<path d="M553.166 162.865H553.668V186.163C553.668 186.94 554.298 187.571 555.076 187.571H560.045V189.079C560.045 189.858 559.415 190.486 558.638 190.486H553.166C552.388 190.486 551.759 189.858 551.759 189.079V164.272C551.759 163.494 552.388 162.865 553.166 162.865Z" fill="#EE842C"/>
<path d="M331.276 179.893C331.276 180.671 331.904 181.302 332.683 181.302H365.057C365.835 181.302 366.465 180.671 366.465 179.893V166.072C366.465 165.295 365.835 164.665 365.057 164.665H332.683C331.904 164.665 331.276 165.295 331.276 166.072V179.893Z" fill="#342F35"/>
<path d="M104.645 186.485C104.645 187.263 105.274 187.892 106.052 187.892H253.855C254.633 187.892 255.262 187.263 255.262 186.485V166.072C255.262 165.295 254.633 164.665 253.855 164.665H106.053C105.275 164.665 104.646 165.295 104.646 166.072V186.485H104.645Z" fill="#878787"/>
<path d="M193.336 214.475L132.947 208.18L137.63 179.483L163.896 167.743L184.329 174.751L193.336 214.475Z" fill="#342F35"/>
<path d="M193.545 205.689C191.081 205.689 189.085 203.693 189.085 201.23C189.085 184.697 178.026 172.697 162.789 172.697C149.7 172.697 136.493 181.52 136.493 201.23C136.493 203.693 134.496 205.689 132.034 205.689C129.57 205.689 127.574 203.693 127.574 201.23C127.574 179.178 142.055 163.778 162.789 163.778C183.195 163.778 198.004 179.529 198.004 201.23C198.004 203.693 196.007 205.689 193.545 205.689Z" fill="#C7D3D2"/>
<g opacity="0.6">
<path d="M131.959 205.689C133.798 205.689 136.364 204.456 136.419 201.23C136.419 181.519 149.627 172.697 162.716 172.697C177.953 172.697 189.011 184.697 189.011 201.23C189.011 203.693 191.008 205.689 193.471 205.689C193.471 205.689 196.179 183.166 179.296 172.116C162.414 161.07 131.203 166.452 131.959 205.689Z" fill="#C7D3D2"/>
</g>
<path d="M137.63 198.432C137.63 212.326 148.894 223.591 162.789 223.591C176.684 223.591 187.947 212.326 187.947 198.432C187.947 184.537 176.684 173.273 162.789 173.273C148.894 173.273 137.63 184.537 137.63 198.432Z" fill="#5D595D"/>
<path d="M152.249 198.432C152.249 204.252 156.968 208.971 162.788 208.971C168.608 208.971 173.327 204.252 173.327 198.432C173.327 192.613 168.608 187.892 162.788 187.892C156.968 187.892 152.249 192.613 152.249 198.432Z" fill="#342F35"/>
<path d="M162.789 187.892C160.634 187.892 158.632 188.541 156.962 189.653C157.732 189.474 158.531 189.37 159.355 189.37C165.175 189.37 169.894 194.091 169.894 199.91C169.894 203.575 168.021 206.802 165.182 208.69C169.847 207.604 173.329 203.429 173.329 198.433C173.328 192.613 168.609 187.892 162.789 187.892Z" fill="#484149"/>
<path d="M462.68 208.168C462.68 208.661 462.281 209.06 461.788 209.06H323.77C323.276 209.06 322.878 208.661 322.878 208.168V205.067C322.878 204.574 323.276 204.175 323.77 204.175H461.788C462.281 204.175 462.68 204.574 462.68 205.067V208.168Z" fill="#342F35"/>
<path d="M557.811 214.29C557.811 214.783 557.412 215.182 556.919 215.182H519.98C519.487 215.182 519.088 214.783 519.088 214.29V209.953C519.088 209.459 519.487 209.061 519.98 209.061H556.919C557.412 209.061 557.811 209.459 557.811 209.953V214.29Z" fill="#5D595D"/>
<path d="M521.274 205.12C518.812 205.12 516.815 203.124 516.815 200.66C516.815 184.127 505.756 172.127 490.519 172.127C477.429 172.127 464.222 180.95 464.222 200.66C464.222 203.124 462.226 205.12 459.763 205.12C457.3 205.12 455.303 203.124 455.303 200.66C455.303 178.608 469.785 163.208 490.519 163.208C510.924 163.208 525.734 178.959 525.734 200.66C525.734 203.124 523.738 205.12 521.274 205.12Z" fill="#C7D3D2"/>
<g opacity="0.6">
<path d="M459.762 205.12C461.6 205.12 464.166 203.886 464.221 200.66C464.221 180.95 477.428 172.127 490.518 172.127C505.755 172.127 516.814 184.127 516.814 200.66C516.814 203.124 518.811 205.12 521.273 205.12C521.273 205.12 523.982 182.596 507.099 171.546C490.217 160.5 459.006 165.882 459.762 205.12Z" fill="#C7D3D2"/>
</g>
<path d="M513.721 208.241C519.131 195.442 513.142 180.681 500.343 175.27C487.545 169.859 472.783 175.848 467.372 188.647C461.962 201.446 467.951 216.207 480.75 221.618C493.548 227.029 508.31 221.04 513.721 208.241Z" fill="#5D595D"/>
<path d="M479.978 198.432C479.978 204.252 484.696 208.971 490.518 208.971C496.338 208.971 501.056 204.252 501.056 198.432C501.056 192.613 496.338 187.892 490.518 187.892C484.696 187.892 479.978 192.613 479.978 198.432Z" fill="#342F35"/>
<path d="M501.057 198.432C501.057 192.613 496.339 187.892 490.518 187.892C488.363 187.892 486.36 188.541 484.691 189.653C485.46 189.474 486.26 189.37 487.085 189.37C492.905 189.37 497.623 194.091 497.623 199.91C497.623 203.575 495.75 206.802 492.911 208.69C497.577 207.604 501.057 203.429 501.057 198.432Z" fill="#484149"/>
<path d="M369.438 209.041C369.438 209.82 370.068 210.449 370.846 210.449H450.865C451.641 210.449 452.272 209.82 452.272 209.041V176.158C452.272 175.382 451.641 174.751 450.865 174.751H370.846C370.068 174.751 369.438 175.382 369.438 176.158V209.041Z" fill="#5D595D"/>
<path d="M440.042 211.172C440.042 211.503 439.773 211.773 439.442 211.773C439.11 211.773 438.841 211.503 438.841 211.172V174.029C438.841 173.699 439.11 173.428 439.442 173.428C439.773 173.428 440.042 173.699 440.042 174.029V211.172Z" fill="#342F35"/>
<path d="M382.868 211.172C382.868 211.503 382.6 211.773 382.268 211.773C381.936 211.773 381.668 211.503 381.668 211.172V174.029C381.668 173.699 381.936 173.428 382.268 173.428C382.6 173.428 382.868 173.699 382.868 174.029V211.172Z" fill="#342F35"/>
</svg>
