<svg width="24" height="24" viewBox="0 0 24 24" fill="none" xmlns="http://www.w3.org/2000/svg">
<g clip-path="url(#clip0_572_318)">
<path d="M23.773 21.937L21.137 7.437C21.064 7.03373 20.8518 6.6689 20.5372 6.40624C20.2226 6.14358 19.8258 5.99979 19.416 6H4.58395C4.17408 5.99995 3.77719 6.14377 3.46249 6.40638C3.1478 6.66899 2.93526 7.03373 2.86195 7.437L0.225953 21.937C0.179638 22.1891 0.189501 22.4483 0.254838 22.6962C0.320175 22.9441 0.439378 23.1745 0.603953 23.371C0.936953 23.771 1.42795 24 1.94795 24H22.052C22.573 24 23.063 23.771 23.396 23.371C23.729 22.972 23.867 22.449 23.773 21.937ZM10.795 18.828C10.7272 18.8996 10.646 18.9572 10.556 18.9974C10.4661 19.0377 10.369 19.0598 10.2705 19.0625C10.1719 19.0651 10.0738 19.0484 9.98176 19.0131C9.8897 18.9779 9.80549 18.9248 9.73395 18.857L7.49995 16.743V18.25C7.49995 18.4489 7.42094 18.6397 7.28028 18.7803C7.13963 18.921 6.94886 19 6.74995 19C6.55104 19 6.36027 18.921 6.21962 18.7803C6.07897 18.6397 5.99995 18.4489 5.99995 18.25V11.75C5.99995 11.5511 6.07897 11.3603 6.21962 11.2197C6.36027 11.079 6.55104 11 6.74995 11C6.94886 11 7.13963 11.079 7.28028 11.2197C7.42094 11.3603 7.49995 11.5511 7.49995 11.75V13.28L9.73995 11.2C9.81218 11.133 9.89689 11.0809 9.98925 11.0467C10.0816 11.0125 10.1798 10.9968 10.2782 11.0005C10.3767 11.0042 10.4734 11.0272 10.5629 11.0683C10.6524 11.1094 10.733 11.1678 10.8 11.24C10.8669 11.3122 10.919 11.3969 10.9533 11.4893C10.9875 11.5817 11.0032 11.6799 10.9995 11.7783C10.9958 11.8767 10.9727 11.9734 10.9316 12.063C10.8905 12.1525 10.8322 12.233 10.76 12.3L7.84595 15.006L10.765 17.768C10.9095 17.9046 10.9938 18.093 10.9994 18.2918C11.005 18.4906 10.9315 18.6834 10.795 18.828ZM18 13.75C18 13.9489 17.9209 14.1397 17.7803 14.2803C17.6396 14.421 17.4489 14.5 17.25 14.5C17.051 14.5 16.8603 14.421 16.7196 14.2803C16.579 14.1397 16.5 13.9489 16.5 13.75V13.5C16.5 12.949 16.051 12.5 15.5 12.5C14.949 12.5 14.5 12.949 14.5 13.5V16.5C14.5 17.051 14.949 17.5 15.5 17.5C16.051 17.5 16.5 17.051 16.5 16.5H15.75C15.551 16.5 15.3603 16.421 15.2196 16.2803C15.079 16.1397 15 15.9489 15 15.75C15 15.5511 15.079 15.3603 15.2196 15.2197C15.3603 15.079 15.551 15 15.75 15H17.25C17.4489 15 17.6396 15.079 17.7803 15.2197C17.9209 15.3603 18 15.5511 18 15.75V16.5C18 17.878 16.878 19 15.5 19C14.122 19 13 17.878 13 16.5V13.5C13 12.122 14.122 11 15.5 11C16.878 11 18 12.122 18 13.5V13.75Z" fill="#FF7700"/>
<path d="M12 7.5C9.932 7.5 8.25 5.818 8.25 3.75C8.25 1.682 9.932 0 12 0C14.068 0 15.75 1.682 15.75 3.75C15.75 5.818 14.068 7.5 12 7.5ZM12 2C11.035 2 10.25 2.785 10.25 3.75C10.25 4.715 11.035 5.5 12 5.5C12.965 5.5 13.75 4.715 13.75 3.75C13.75 2.785 12.965 2 12 2Z" fill="#FF7700"/>
</g>
<defs>
<clipPath id="clip0_572_318">
<rect width="24" height="24" fill="white"/>
</clipPath>
</defs>
</svg>
