<svg width="102" height="27" viewBox="0 0 102 27" fill="none" xmlns="http://www.w3.org/2000/svg">
<path d="M10.224 6.56V11.456C10.224 13.568 10.164 15.524 10.044 17.324C9.948 19.1 9.624 20.636 9.072 21.932C8.544 23.228 7.692 24.236 6.516 24.956C5.364 25.676 3.732 26.036 1.62 26.036H0.252V19.88C0.588 19.88 0.924 19.856 1.26 19.808C1.62 19.76 1.932 19.664 2.196 19.52C2.556 19.352 2.844 19.1 3.06 18.764C3.276 18.428 3.444 18.068 3.564 17.684C3.684 17.3 3.768 16.94 3.816 16.604C3.888 16.268 3.948 15.896 3.996 15.488C4.044 14.984 4.08 14.456 4.104 13.904C4.128 13.352 4.14 12.812 4.14 12.284C4.164 11.732 4.176 11.24 4.176 10.808C4.2 10.376 4.212 9.98 4.212 9.62V0.512H23.004V26H16.488V6.56H10.224ZM39.53 0.188C41.45 0.188 43.202 0.499999 44.786 1.124C46.394 1.724 47.762 2.588 48.89 3.716C50.042 4.82 50.93 6.176 51.554 7.784C52.202 9.368 52.526 11.144 52.526 13.112C52.526 15.056 52.214 16.844 51.59 18.476C50.966 20.084 50.078 21.476 48.926 22.652C47.774 23.804 46.394 24.704 44.786 25.352C43.202 25.976 41.438 26.288 39.494 26.288C37.502 26.288 35.702 25.976 34.094 25.352C32.486 24.728 31.106 23.852 29.954 22.724C28.826 21.572 27.95 20.192 27.326 18.584C26.726 16.976 26.426 15.188 26.426 13.22C26.426 11.252 26.738 9.464 27.362 7.856C28.01 6.248 28.91 4.88 30.062 3.752C31.214 2.624 32.594 1.748 34.202 1.124C35.81 0.499999 37.586 0.188 39.53 0.188ZM33.086 13.184C33.086 14.048 33.206 14.9 33.446 15.74C33.71 16.556 34.106 17.3 34.634 17.972C35.162 18.62 35.834 19.148 36.65 19.556C37.49 19.94 38.498 20.132 39.674 20.132C40.778 20.132 41.714 19.928 42.482 19.52C43.274 19.088 43.922 18.548 44.426 17.9C44.93 17.228 45.29 16.496 45.506 15.704C45.746 14.888 45.866 14.084 45.866 13.292C45.866 12.548 45.758 11.768 45.542 10.952C45.326 10.112 44.966 9.356 44.462 8.684C43.958 8.012 43.298 7.46 42.482 7.028C41.69 6.572 40.718 6.344 39.566 6.344C38.414 6.344 37.418 6.548 36.578 6.956C35.762 7.364 35.09 7.892 34.562 8.54C34.058 9.188 33.686 9.92 33.446 10.736C33.206 11.552 33.086 12.368 33.086 13.184ZM55.955 26V0.512H74.387V6.56H62.471V26H55.955ZM88.9245 0.188C90.8445 0.188 92.5965 0.499999 94.1805 1.124C95.7885 1.724 97.1565 2.588 98.2845 3.716C99.4365 4.82 100.325 6.176 100.949 7.784C101.597 9.368 101.921 11.144 101.921 13.112C101.921 15.056 101.609 16.844 100.985 18.476C100.361 20.084 99.4725 21.476 98.3205 22.652C97.1685 23.804 95.7885 24.704 94.1805 25.352C92.5965 25.976 90.8325 26.288 88.8885 26.288C86.8965 26.288 85.0965 25.976 83.4885 25.352C81.8805 24.728 80.5005 23.852 79.3485 22.724C78.2205 21.572 77.3445 20.192 76.7205 18.584C76.1205 16.976 75.8205 15.188 75.8205 13.22C75.8205 11.252 76.1325 9.464 76.7565 7.856C77.4045 6.248 78.3045 4.88 79.4565 3.752C80.6085 2.624 81.9885 1.748 83.5965 1.124C85.2045 0.499999 86.9805 0.188 88.9245 0.188ZM82.4805 13.184C82.4805 14.048 82.6005 14.9 82.8405 15.74C83.1045 16.556 83.5005 17.3 84.0285 17.972C84.5565 18.62 85.2285 19.148 86.0445 19.556C86.8845 19.94 87.8925 20.132 89.0685 20.132C90.1725 20.132 91.1085 19.928 91.8765 19.52C92.6685 19.088 93.3165 18.548 93.8205 17.9C94.3245 17.228 94.6845 16.496 94.9005 15.704C95.1405 14.888 95.2605 14.084 95.2605 13.292C95.2605 12.548 95.1525 11.768 94.9365 10.952C94.7205 10.112 94.3605 9.356 93.8565 8.684C93.3525 8.012 92.6925 7.46 91.8765 7.028C91.0845 6.572 90.1125 6.344 88.9605 6.344C87.8085 6.344 86.8125 6.548 85.9725 6.956C85.1565 7.364 84.4845 7.892 83.9565 8.54C83.4525 9.188 83.0805 9.92 82.8405 10.736C82.6005 11.552 82.4805 12.368 82.4805 13.184Z" fill="#006EBC"/>
</svg>
