<svg width="44" height="48" viewBox="0 0 44 48" fill="none" xmlns="http://www.w3.org/2000/svg">
<path d="M26.2021 34.1498C26.0722 34.1497 25.9445 34.1156 25.8312 34.0507L17.4257 29.2274C17.2502 29.1268 17.1211 28.9592 17.0668 28.7615C17.0124 28.5637 17.0373 28.352 17.1359 28.173C17.2345 27.9939 17.3987 27.8622 17.5925 27.8067C17.7862 27.7513 17.9937 27.7766 18.1691 27.8772L26.5746 32.7005C26.721 32.7843 26.836 32.9154 26.9016 33.0731C26.9672 33.2308 26.9797 33.4063 26.9371 33.572C26.8945 33.7377 26.7992 33.8843 26.6662 33.9889C26.5332 34.0934 26.37 34.15 26.2021 34.1498ZM17.7981 20.222C17.6304 20.2221 17.4674 20.1656 17.3346 20.0611C17.2017 19.9567 17.1066 19.8102 17.0639 19.6447C17.0213 19.4792 17.0336 19.3039 17.0989 19.1463C17.1642 18.9887 17.2788 18.8576 17.4249 18.7735L25.8304 13.9425C26.0054 13.8458 26.2106 13.823 26.4018 13.8792C26.5931 13.9355 26.755 14.0661 26.8527 14.243C26.9505 14.4199 26.9762 14.629 26.9243 14.825C26.8724 15.0211 26.7471 15.1885 26.5754 15.2912L18.1699 20.1221C18.0565 20.1877 17.9284 20.2221 17.7981 20.222ZM38.6898 16.2581H29.5864C29.3852 16.2581 29.1922 16.1766 29.0499 16.0314C28.9077 15.8862 28.8277 15.6893 28.8277 15.484V13.1614C28.8289 12.1351 29.229 11.1512 29.94 10.4255C30.6511 9.69986 31.6152 9.29163 32.6208 9.29041H35.6553C36.6609 9.29163 37.625 9.69986 38.3361 10.4255C39.0472 11.1512 39.4472 12.1351 39.4484 13.1614V15.484C39.4484 15.6893 39.3685 15.8862 39.2262 16.0314C39.084 16.1766 38.891 16.2581 38.6898 16.2581ZM30.345 14.7098H37.9312V13.1614C37.9312 12.5454 37.6914 11.9546 37.2646 11.5191C36.8378 11.0835 36.2589 10.8388 35.6553 10.8388H32.6208C32.0172 10.8388 31.4384 11.0835 31.0116 11.5191C30.5848 11.9546 30.345 12.5454 30.345 13.1614V14.7098Z" fill="#006EBC"/>
<path d="M34.1381 10.8392C33.3879 10.8392 32.6545 10.6122 32.0308 10.1868C31.407 9.7615 30.9208 9.15694 30.6337 8.44961C30.3466 7.74229 30.2715 6.96396 30.4179 6.21307C30.5642 5.46218 30.9255 4.77244 31.456 4.23107C31.9864 3.68971 32.6623 3.32103 33.3981 3.17167C34.1339 3.02231 34.8966 3.09897 35.5897 3.39195C36.2828 3.68494 36.8752 4.18109 37.2919 4.81766C37.7087 5.45424 37.9312 6.20265 37.9312 6.96826C37.93 7.99453 37.53 8.97841 36.8189 9.70409C36.1078 10.4298 35.1437 10.838 34.1381 10.8392ZM34.1381 4.64568C33.688 4.64568 33.248 4.7819 32.8737 5.0371C32.4994 5.29231 32.2077 5.65505 32.0355 6.07945C31.8632 6.50384 31.8182 6.97084 31.906 7.42137C31.9938 7.87191 32.2105 8.28575 32.5288 8.61057C32.8471 8.93539 33.2526 9.15659 33.6941 9.24621C34.1356 9.33583 34.5932 9.28983 35.009 9.11404C35.4249 8.93825 35.7803 8.64056 36.0304 8.25862C36.2805 7.87667 36.414 7.42762 36.414 6.96826C36.414 6.35227 36.1742 5.76151 35.7474 5.32595C35.3206 4.89038 34.7417 4.64568 34.1381 4.64568ZM38.6898 44.1295H29.5864C29.3852 44.1295 29.1922 44.048 29.05 43.9028C28.9077 43.7576 28.8278 43.5607 28.8278 43.3554V41.0328C28.829 40.0065 29.229 39.0226 29.9401 38.2969C30.6511 37.5713 31.6152 37.163 32.6209 37.1618H35.6553C36.661 37.163 37.6251 37.5713 38.3361 38.2969C39.0472 39.0226 39.4472 40.0065 39.4484 41.0328V43.3554C39.4484 43.5607 39.3685 43.7576 39.2262 43.9028C39.084 44.048 38.891 44.1295 38.6898 44.1295ZM30.345 42.5812H37.9312V41.0328C37.9312 40.4168 37.6914 39.826 37.2646 39.3905C36.8378 38.9549 36.2589 38.7102 35.6553 38.7102H32.6209C32.0173 38.7102 31.4384 38.9549 31.0116 39.3905C30.5848 39.826 30.345 40.4168 30.345 41.0328V42.5812Z" fill="#006EBC"/>
<path d="M34.1389 38.7097C33.3887 38.7097 32.6554 38.4827 32.0316 38.0573C31.4078 37.632 30.9217 37.0274 30.6346 36.3201C30.3475 35.6128 30.2724 34.8344 30.4187 34.0835C30.5651 33.3327 30.9263 32.6429 31.4568 32.1015C31.9873 31.5602 32.6631 31.1915 33.3989 31.0421C34.1347 30.8928 34.8974 30.9694 35.5905 31.2624C36.2836 31.5554 36.876 32.0516 37.2928 32.6881C37.7096 33.3247 37.932 34.0731 37.932 34.8387C37.9308 35.865 37.5308 36.8489 36.8197 37.5746C36.1086 38.3002 35.1446 38.7085 34.1389 38.7097ZM34.1389 32.5162C33.6888 32.5162 33.2488 32.6524 32.8745 32.9076C32.5003 33.1628 32.2086 33.5255 32.0363 33.9499C31.8641 34.3743 31.819 34.8413 31.9068 35.2918C31.9946 35.7424 32.2114 36.1562 32.5297 36.481C32.8479 36.8059 33.2535 37.0271 33.6949 37.1167C34.1364 37.2063 34.594 37.1603 35.0099 36.9845C35.4257 36.8087 35.7812 36.511 36.0312 36.1291C36.2813 35.7471 36.4148 35.2981 36.4148 34.8387C36.4148 34.2227 36.175 33.632 35.7482 33.1964C35.3214 32.7609 34.7425 32.5162 34.1389 32.5162ZM14.4148 30.1936H5.31135C5.11016 30.1936 4.9172 30.112 4.77493 29.9668C4.63266 29.8216 4.55273 29.6247 4.55273 29.4194V27.0968C4.55394 26.0705 4.95396 25.0867 5.66504 24.361C6.37612 23.6353 7.34021 23.2271 8.34584 23.2258H11.3803C12.3859 23.2271 13.35 23.6353 14.0611 24.361C14.7722 25.0867 15.1722 26.0705 15.1734 27.0968V29.4194C15.1734 29.6247 15.0935 29.8216 14.9512 29.9668C14.809 30.112 14.616 30.1936 14.4148 30.1936ZM6.06998 28.6452H13.6562V27.0968C13.6562 26.4808 13.4164 25.8901 12.9896 25.4545C12.5628 25.0189 11.9839 24.7742 11.3803 24.7742H8.34584C7.74224 24.7742 7.16337 25.0189 6.73656 25.4545C6.30975 25.8901 6.06998 26.4808 6.06998 27.0968V28.6452Z" fill="#006EBC"/>
<path d="M9.86201 24.7742C9.11181 24.7742 8.37845 24.5472 7.75468 24.1218C7.13091 23.6965 6.64473 23.0919 6.35764 22.3846C6.07055 21.6773 5.99544 20.8989 6.14179 20.148C6.28815 19.3971 6.64941 18.7074 7.17988 18.166C7.71036 17.6247 8.38623 17.256 9.12202 17.1066C9.85781 16.9573 10.6205 17.0339 11.3136 17.3269C12.0067 17.6199 12.5991 18.1161 13.0159 18.7526C13.4327 19.3892 13.6551 20.1376 13.6551 20.9032C13.6539 21.9295 13.2539 22.9134 12.5428 23.6391C11.8317 24.3647 10.8676 24.773 9.86201 24.7742ZM9.86201 18.5806C9.41189 18.5806 8.97188 18.7169 8.59761 18.9721C8.22335 19.2273 7.93165 19.59 7.75939 20.0144C7.58714 20.4388 7.54207 20.9058 7.62988 21.3563C7.7177 21.8069 7.93445 22.2207 8.25274 22.5455C8.57102 22.8704 8.97654 23.0916 9.41802 23.1812C9.85949 23.2708 10.3171 23.2248 10.7329 23.049C11.1488 22.8732 11.5042 22.5755 11.7543 22.1936C12.0044 21.8116 12.1379 21.3626 12.1379 20.9032C12.1379 20.2872 11.8981 19.6965 11.4713 19.2609C11.0445 18.8253 10.4656 18.5806 9.86201 18.5806ZM34.1379 20.129C32.1873 20.129 30.2806 19.5388 28.6588 18.4329C27.037 17.327 25.7729 15.7551 25.0265 13.916C24.2801 12.077 24.0848 10.0534 24.4653 8.10103C24.8458 6.14871 25.7851 4.35538 27.1643 2.94783C28.5436 1.54028 30.3008 0.581733 32.2139 0.193391C34.1269 -0.19495 36.1099 0.0043608 37.9119 0.76612C39.714 1.52788 41.2542 2.81787 42.3379 4.47297C43.4215 6.12808 43.9999 8.07395 43.9999 10.0645C43.9969 12.7329 42.9569 15.291 41.1081 17.1778C39.2592 19.0646 36.7525 20.126 34.1379 20.129ZM34.1379 1.54839C32.4874 1.54839 30.874 2.04785 29.5017 2.98362C28.1294 3.91938 27.0599 5.24942 26.4283 6.80554C25.7967 8.36166 25.6314 10.074 25.9534 11.7259C26.2754 13.3779 27.0701 14.8953 28.2372 16.0863C29.4042 17.2773 30.8911 18.0884 32.5099 18.417C34.1286 18.7456 35.8065 18.577 37.3313 17.9324C38.8561 17.2878 40.1594 16.1963 41.0763 14.7958C41.9933 13.3954 42.4827 11.7489 42.4827 10.0645C42.4801 7.80672 41.6001 5.64216 40.0357 4.04565C38.4713 2.44914 36.3503 1.55105 34.1379 1.54839ZM34.1379 48C32.1873 48 30.2806 47.4097 28.6588 46.3038C27.037 45.1979 25.7729 43.6261 25.0265 41.787C24.2801 39.948 24.0848 37.9243 24.4653 35.972C24.8458 34.0197 25.7851 32.2263 27.1643 30.8188C28.5436 29.4113 30.3008 28.4527 32.2139 28.0644C34.1269 27.676 36.1099 27.8753 37.9119 28.6371C39.714 29.3988 41.2542 30.6888 42.3379 32.3439C43.4215 33.999 43.9999 35.9449 43.9999 37.9355C43.9969 40.6038 42.9569 43.162 41.1081 45.0488C39.2592 46.9356 36.7525 47.9969 34.1379 48ZM34.1379 29.4194C32.4874 29.4194 30.874 29.9188 29.5017 30.8546C28.1294 31.7903 27.0599 33.1204 26.4283 34.6765C25.7967 36.2326 25.6314 37.9449 25.9534 39.5969C26.2754 41.2489 27.0701 42.7663 28.2372 43.9573C29.4042 45.1483 30.8911 45.9594 32.5099 46.288C34.1286 46.6166 35.8065 46.4479 37.3313 45.8034C38.8561 45.1588 40.1594 44.0673 41.0763 42.6668C41.9933 41.2663 42.4827 39.6198 42.4827 37.9355C42.4801 35.6777 41.6001 33.5131 40.0357 31.9166C38.4713 30.3201 36.3503 29.422 34.1379 29.4194Z" fill="#006EBC"/>
<path d="M9.86207 34.0647C7.91154 34.0647 6.00481 33.4744 4.383 32.3685C2.76119 31.2626 1.49715 29.6908 0.750709 27.8517C0.00427308 26.0127 -0.191029 23.989 0.189501 22.0367C0.570031 20.0844 1.5093 18.291 2.88854 16.8835C4.26777 15.476 6.02502 14.5174 7.93808 14.1291C9.85113 13.7407 11.8341 13.94 13.6361 14.7018C15.4382 15.4635 16.9784 16.7535 18.0621 18.4086C19.1457 20.0637 19.7241 22.0096 19.7241 24.0002C19.7211 26.6685 18.6811 29.2267 16.8323 31.1135C14.9834 33.0003 12.4767 34.0616 9.86207 34.0647ZM9.86207 15.4841C8.21162 15.4841 6.59823 15.9835 5.22593 16.9193C3.85363 17.855 2.78406 19.1851 2.15246 20.7412C1.52086 22.2973 1.3556 24.0096 1.67759 25.6616C1.99958 27.3136 2.79434 28.831 3.96139 30.022C5.12843 31.213 6.61534 32.0241 8.23408 32.3527C9.85281 32.6813 11.5307 32.5126 13.0555 31.8681C14.5803 31.2235 15.8836 30.132 16.8005 28.7315C17.7175 27.331 18.2069 25.6845 18.2069 24.0002C18.2043 21.7424 17.3243 19.5778 15.7599 17.9813C14.1955 16.3848 12.0745 15.4867 9.86207 15.4841Z" fill="#006EBC"/>
</svg>
