<svg width="25" height="27" viewBox="0 0 25 27" fill="none" xmlns="http://www.w3.org/2000/svg">
<path d="M24.159 6.74996V20.25L12.4999 26.3863L0.84082 20.25V6.74996L1.58332 6.3603L12.4999 11.9659L23.2846 6.28973L24.159 6.74996Z" fill="#FF7700"/>
<path d="M0.84082 6.74995L12.4999 12.8863L24.159 6.74995L12.4999 0.613586L0.84082 6.74995Z" fill="#FF7700"/>
<path d="M24.1591 6.75V20.25L12.5 26.3864V12.8864L24.1591 6.75Z" fill="#FF7700"/>
<path d="M24.3022 6.47844L12.6431 0.342073C12.599 0.318881 12.5499 0.306763 12.5001 0.306763C12.4503 0.306763 12.4012 0.318881 12.3571 0.342073L0.698021 6.47844C0.649145 6.50517 0.608232 6.54439 0.57945 6.59209C0.550668 6.63979 0.535048 6.69427 0.53418 6.74997V20.25C0.534168 20.3059 0.549422 20.3607 0.578297 20.4085C0.607172 20.4564 0.648569 20.4955 0.698021 20.5215L12.3571 26.6579C12.362 26.6603 12.3675 26.6612 12.3728 26.664C12.3795 26.6671 12.3866 26.6689 12.3936 26.6717C12.4273 26.6859 12.4635 26.6932 12.5001 26.6932C12.5367 26.6932 12.5729 26.6859 12.6066 26.6717C12.6136 26.6689 12.6204 26.6668 12.6274 26.6637C12.6323 26.6616 12.6379 26.6606 12.6428 26.6576L24.3018 20.5212C24.3513 20.4952 24.3927 20.4562 24.4217 20.4084C24.4506 20.3606 24.4659 20.3058 24.466 20.25V6.74997C24.4652 6.69426 24.4496 6.63977 24.4208 6.59206C24.392 6.54436 24.3511 6.50515 24.3022 6.47844ZM12.5001 0.960312L23.5001 6.74997L12.5001 12.5396L1.49974 6.74997L12.5001 0.960312ZM1.14782 7.25806L12.1933 13.0717V25.8782L1.14782 20.065V7.25806ZM23.8524 20.0647L12.8069 25.8782V13.0717L23.8524 7.25806V20.0647Z" fill="#FF7700"/>
</svg>
