<svg width="24" height="24" viewBox="0 0 24 24" fill="none" xmlns="http://www.w3.org/2000/svg">
<g clip-path="url(#clip0_28_1279)">
<path d="M23.773 21.937L21.137 7.437C21.0641 7.03373 20.8518 6.6689 20.5372 6.40624C20.2227 6.14358 19.8258 5.99979 19.416 6H4.58401C4.17414 5.99995 3.77725 6.14377 3.46255 6.40638C3.14786 6.66899 2.93532 7.03373 2.86201 7.437L0.226014 21.937C0.179699 22.1891 0.189562 22.4483 0.254899 22.6962C0.320236 22.9441 0.439439 23.1745 0.604014 23.371C0.937014 23.771 1.42801 24 1.94801 24H22.052C22.573 24 23.063 23.771 23.396 23.371C23.729 22.972 23.867 22.449 23.773 21.937ZM10.795 18.828C10.7273 18.8996 10.6461 18.9572 10.5561 18.9974C10.4661 19.0377 10.3691 19.0598 10.2705 19.0625C10.172 19.0651 10.0739 19.0484 9.98182 19.0131C9.88976 18.9779 9.80555 18.9248 9.73401 18.857L7.50001 16.743V18.25C7.50001 18.4489 7.421 18.6397 7.28034 18.7803C7.13969 18.921 6.94893 19 6.75001 19C6.5511 19 6.36034 18.921 6.21968 18.7803C6.07903 18.6397 6.00001 18.4489 6.00001 18.25V11.75C6.00001 11.5511 6.07903 11.3603 6.21968 11.2197C6.36034 11.079 6.5511 11 6.75001 11C6.94893 11 7.13969 11.079 7.28034 11.2197C7.421 11.3603 7.50001 11.5511 7.50001 11.75V13.28L9.74001 11.2C9.81224 11.133 9.89695 11.0809 9.98931 11.0467C10.0817 11.0125 10.1799 10.9968 10.2783 11.0005C10.3767 11.0042 10.4735 11.0272 10.563 11.0683C10.6525 11.1094 10.733 11.1678 10.8 11.24C10.867 11.3122 10.9191 11.3969 10.9533 11.4893C10.9876 11.5817 11.0033 11.6799 10.9995 11.7783C10.9958 11.8767 10.9728 11.9734 10.9317 12.063C10.8906 12.1525 10.8322 12.233 10.76 12.3L7.84601 15.006L10.765 17.768C10.9095 17.9046 10.9939 18.093 10.9995 18.2918C11.0051 18.4906 10.9316 18.6834 10.795 18.828ZM18 13.75C18 13.9489 17.921 14.1397 17.7803 14.2803C17.6397 14.421 17.4489 14.5 17.25 14.5C17.0511 14.5 16.8603 14.421 16.7197 14.2803C16.579 14.1397 16.5 13.9489 16.5 13.75V13.5C16.5 12.949 16.051 12.5 15.5 12.5C14.949 12.5 14.5 12.949 14.5 13.5V16.5C14.5 17.051 14.949 17.5 15.5 17.5C16.051 17.5 16.5 17.051 16.5 16.5H15.75C15.5511 16.5 15.3603 16.421 15.2197 16.2803C15.079 16.1397 15 15.9489 15 15.75C15 15.5511 15.079 15.3603 15.2197 15.2197C15.3603 15.079 15.5511 15 15.75 15H17.25C17.4489 15 17.6397 15.079 17.7803 15.2197C17.921 15.3603 18 15.5511 18 15.75V16.5C18 17.878 16.878 19 15.5 19C14.122 19 13 17.878 13 16.5V13.5C13 12.122 14.122 11 15.5 11C16.878 11 18 12.122 18 13.5V13.75Z" fill="#006EBC"/>
<path d="M12 7.5C9.932 7.5 8.25 5.818 8.25 3.75C8.25 1.682 9.932 0 12 0C14.068 0 15.75 1.682 15.75 3.75C15.75 5.818 14.068 7.5 12 7.5ZM12 2C11.035 2 10.25 2.785 10.25 3.75C10.25 4.715 11.035 5.5 12 5.5C12.965 5.5 13.75 4.715 13.75 3.75C13.75 2.785 12.965 2 12 2Z" fill="#006EBC"/>
</g>
<defs>
<clipPath id="clip0_28_1279">
<rect width="24" height="24" fill="white"/>
</clipPath>
</defs>
</svg>
